<svg width="20" height="20" viewBox="0 0 20 20" fill="none" xmlns="http://www.w3.org/2000/svg">
<path d="M4.99979 12.1426H4.28551C3.90662 12.1426 3.54326 11.9921 3.27535 11.7242C3.00744 11.4563 2.85693 11.093 2.85693 10.7141V4.28551C2.85693 3.90662 3.00744 3.54326 3.27535 3.27535C3.54326 3.00744 3.90662 2.85693 4.28551 2.85693H10.7141C11.093 2.85693 11.4563 3.00744 11.7242 3.27535C11.9921 3.54326 12.1426 3.90662 12.1426 4.28551V4.99979M9.28551 7.85693H15.7141C16.5031 7.85693 17.1426 8.49653 17.1426 9.28551V15.7141C17.1426 16.5031 16.5031 17.1426 15.7141 17.1426H9.28551C8.49653 17.1426 7.85693 16.5031 7.85693 15.7141V9.28551C7.85693 8.49653 8.49653 7.85693 9.28551 7.85693Z" stroke="#999999" stroke-linecap="round" stroke-linejoin="round"/>
</svg>
