<svg fill="none" xmlns="http://www.w3.org/2000/svg" viewBox="0 0 27 26">
  <rect x=".167" width="26" height="26" rx="13" fill="#000" fill-opacity=".87"/>
  <path d="M10.46 13a2.708 2.708 0 115.415 0 2.708 2.708 0 01-5.416 0zm-1.465 0a4.172 4.172 0 108.344 0 4.172 4.172 0 00-8.344 0zm7.534-4.338a.975.975 0 10.976-.974h0a.975.975 0 00-.976.974zM9.885 19.614c-.793-.037-1.223-.169-1.51-.28a2.525 2.525 0 01-.934-.608 2.507 2.507 0 01-.608-.934c-.111-.286-.243-.716-.28-1.509-.039-.856-.046-1.113-.046-3.283s.008-2.426.047-3.283c.036-.793.169-1.222.28-1.51.147-.379.323-.65.607-.934.284-.284.555-.46.935-.608.286-.111.716-.243 1.509-.28.856-.038 1.113-.046 3.282-.046s2.426.008 3.284.047c.792.036 1.221.169 1.508.28.38.146.65.323.935.607.285.284.46.555.608.935.111.286.243.716.28 1.509.038.857.046 1.113.046 3.283s-.008 2.426-.047 3.284c-.036.792-.168 1.222-.28 1.508-.147.38-.323.65-.607.934-.284.284-.555.46-.935.608-.286.112-.716.244-1.508.28-.857.039-1.114.047-3.284.047s-2.426-.008-3.282-.047zm-.068-14.69c-.865.04-1.456.177-1.972.378a3.985 3.985 0 00-1.44.937 3.97 3.97 0 00-.936 1.44c-.201.516-.338 1.106-.378 1.971-.04.867-.049 1.143-.049 3.35s.01 2.483.05 3.35c.039.865.176 1.455.377 1.972.207.534.485.988.937 1.44.452.45.905.728 1.44.936.516.201 1.106.338 1.971.378.867.04 1.143.049 3.35.049s2.483-.01 3.35-.05c.865-.039 1.456-.176 1.972-.377a3.995 3.995 0 001.44-.937 3.98 3.98 0 00.936-1.44c.201-.516.34-1.106.378-1.971.04-.867.048-1.144.048-3.35 0-2.207-.009-2.483-.048-3.35-.04-.865-.177-1.456-.378-1.972a3.996 3.996 0 00-.937-1.44 3.975 3.975 0 00-1.438-.936c-.517-.201-1.108-.339-1.973-.378-.866-.04-1.143-.049-3.35-.049-2.206 0-2.483.01-3.35.05z" fill="#fff" stroke="#fff" stroke-width=".2"/>
</svg>
