<svg fill="none" xmlns="http://www.w3.org/2000/svg" viewBox="0 0 27 26">
  <rect x=".167" width="26" height="26" rx="13" fill="#000" fill-opacity=".87"/>
  <path d="M11.823 17.846c.421.807 1.656 1.49 2.967 1.49 3.904 0 6.714-3.592 6.714-8.051 0-4.274-3.49-7.473-7.978-7.473-5.585 0-8.548 3.747-8.548 7.832 0 1.9 1.01 4.26 2.626 5.011.247.117.377.066.432-.17.043-.182.261-1.057.36-1.467a.385.385 0 00-.092-.37c-.533-.65-.962-1.842-.962-2.953 0-2.854 2.16-5.618 5.843-5.618 3.18 0 5.407 2.165 5.407 5.266 0 3.5-1.769 5.926-4.07 5.926-1.272 0-2.223-1.05-1.918-2.338.367-1.54 1.071-3.2 1.071-4.31 0-.996-.534-1.824-1.638-1.824-1.3 0-2.342 1.344-2.342 3.141 0 1.148.389 1.921.389 1.921s-1.282 5.422-1.518 6.431c-.269 1.162-.145 2.83-.03 3.846.266.102.527.203.8.287.526-.846 1.376-2.335 1.677-3.504.16-.6.81-3.073.81-3.073z" fill="#fff"/>
</svg>
