<svg width="13" height="14" fill="none" xmlns="http://www.w3.org/2000/svg">
	<path d="M10.928 2.055A6.244 6.244 0 006.453.182C2.915.182.071 3.061.106 6.564c0 1.11.312 2.185.832 3.156l-.901 3.295 3.364-.867c.937.52 1.977.763 3.018.763 3.503 0 6.347-2.878 6.347-6.382 0-1.7-.66-3.295-1.838-4.474zm-4.475 9.781a5.153 5.153 0 01-2.67-.728l-.209-.104-2.011.52.52-1.977-.139-.208c-1.526-2.463-.797-5.723 1.7-7.25 2.497-1.525 5.723-.797 7.249 1.7 1.526 2.498.798 5.723-1.7 7.25a5.056 5.056 0 01-2.74.797zm3.053-3.85l-.382-.173s-.555-.243-.902-.416c-.034 0-.07-.035-.104-.035a.501.501 0 00-.243.07s-.034.034-.52.589a.19.19 0 01-.173.104h-.035a.263.263 0 01-.139-.07l-.173-.069c-.382-.173-.729-.381-1.006-.659-.07-.07-.173-.139-.243-.208a3.874 3.874 0 01-.659-.832l-.035-.07c-.034-.034-.034-.07-.069-.138 0-.07 0-.14.035-.174 0 0 .139-.173.243-.277.069-.07.104-.174.173-.243.07-.104.104-.243.07-.347-.035-.173-.452-1.11-.556-1.318a.401.401 0 00-.242-.173h-.382c-.07 0-.139.034-.208.034l-.035.035c-.07.035-.138.104-.208.139-.07.069-.104.138-.173.208a1.769 1.769 0 00-.382 1.075c0 .277.07.555.174.798l.034.104A5.778 5.778 0 004.65 7.709l.138.138c.104.104.209.174.278.278a6.198 6.198 0 002.497 1.318c.104.035.243.035.347.07h.347c.173 0 .381-.07.52-.14.104-.069.174-.069.243-.138l.07-.07c.069-.069.138-.104.207-.173.07-.07.14-.139.174-.208.07-.139.104-.312.139-.486v-.242s-.035-.035-.104-.07z"
		  fill="#fff"/>
</svg>
